<?xml version="1.0" encoding="utf-8"?>
<!-- Generator: Adobe Illustrator 24.0.3, SVG Export Plug-In . SVG Version: 6.00 Build 0)  -->
<svg version="1.1" id="Layer_1" xmlns="http://www.w3.org/2000/svg" xmlns:xlink="http://www.w3.org/1999/xlink" x="0px" y="0px"
	 viewBox="0 0 472.38 253.36" style="enable-background:new 0 0 472.38 253.36;" xml:space="preserve">
<style type="text/css">
	.st0{fill:#33647E;}
	.st1{fill:#42A7C6;}
	.st2{fill:#24272A;}
	.st3{fill:#FFFFFF;}
	.st4{fill:#672F25;}
	.st5{fill:#AA2D29;}
</style>
<g>
	<g>
		<path class="st0" d="M187.52,0.34h-36c-4.95,0-8.97,4.01-8.97,8.97v134.57c0,4.95,4.01,8.97,8.97,8.97h30.01
			c4.95,0,8.97-4.01,8.97-8.97v-5.39c0-4.95-4.01-8.97-8.97-8.97h-6.69c-4.95,0-8.97-4.01-8.97-8.97V32.63
			c0-4.95,4.01-8.97,8.97-8.97h6.34c1.89,0,3.73,0.6,5.26,1.7l83.13,60.19c5.93,4.29,14.23,0.06,14.23-7.26v-3.83
			c0-2.83-1.34-5.49-3.6-7.19L192.88,2.12C191.34,0.97,189.45,0.34,187.52,0.34z"/>
		<path class="st1" d="M285.57,152.84h36c4.95,0,8.97-4.01,8.97-8.97V9.31c0-4.95-4.01-8.97-8.97-8.97h-30.01
			c-4.95,0-8.97,4.01-8.97,8.97v5.39c0,4.95,4.01,8.97,8.97,8.97h6.69c4.95,0,8.97,4.01,8.97,8.97v87.91c0,4.95-4.01,8.97-8.97,8.97
			h-6.34c-1.89,0-3.73-0.6-5.26-1.7l-83.13-60.19c-5.93-4.29-14.23-0.06-14.23,7.26v3.83c0,2.83,1.34,5.49,3.6,7.19l87.31,65.17
			C281.75,152.22,283.63,152.84,285.57,152.84z"/>
	</g>
	<g>
		<path class="st2" d="M13.48,223.28v30.42H0.36v-55.35h13.12l16.56,30.5v-30.5h13.12v55.35H29.63L13.48,223.28z"/>
		<path class="st2" d="M93.75,198.35h36.16v11.89h-21.98v9.68h19.02v11.81h-19.02v10h21.98v11.97H93.75V198.35z"/>
		<path class="st2" d="M213.3,198.35c3.36,0,6.23,2.71,6.23,6.23v25.34c0,3.36-2.87,6.23-6.23,6.23h-0.41l6.81,17.55h-13.94
			l-6.89-17.55h-6.07v17.55h-14.27v-55.35H213.3z M205.34,211.06c0-0.41-0.41-0.82-0.74-0.82H192.8V225h11.81
			c0.33,0,0.74-0.41,0.74-0.74V211.06z"/>
		<path class="st2" d="M308.09,198.35L291.6,253.7h-13.78l-16.07-55.35h15.25l7.71,35.18l9.27-35.18H308.09z"/>
		<path class="st2" d="M353.26,198.35h36.16v11.89h-21.98v9.68h19.02v11.81h-19.02v10h21.98v11.97h-36.16V198.35z"/>
		<path class="st2" d="M436.9,241.73h20.75c0.57,0,0.9-0.33,0.9-0.74v-8.04c0-0.41-0.33-0.74-0.9-0.74h-14.27
			c-3.85,0-6.48-2.62-6.48-6.48v-20.91c0-3.85,2.62-6.48,6.48-6.48h28.62v11.89h-20.01c-0.49,0-0.82,0.41-0.82,0.9v8.12
			c0,0.33,0.33,0.74,0.82,0.74h14.27c3.85,0,6.48,2.62,6.48,6.48v20.75c0,3.85-2.62,6.48-6.48,6.48H436.9V241.73z"/>
	</g>
</g>
</svg>
